<?xml version="1.0" standalone="no"?>
<!DOCTYPE svg PUBLIC "-//W3C//DTD SVG 20010904//EN"
 "http://www.w3.org/TR/2001/REC-SVG-20010904/DTD/svg10.dtd">
<svg version="1.0" xmlns="http://www.w3.org/2000/svg"
 width="150.000000pt" height="150.000000pt" viewBox="0 0 300.000000 300.000000"
 preserveAspectRatio="xMidYMid meet">
<metadata>
Created by potrace 1.10, written by Peter Selinger 2001-2011
</metadata>
<g transform="translate(0.000000,300.000000) scale(0.100000,-0.100000)"
fill="#000000" stroke="none">
<path d="M829 2905 c-46 -96 -60 -159 -43 -182 13 -17 13 -17 14 3 0 33 40
141 66 179 28 42 29 51 8 59 -11 4 -23 -11 -45 -59z"/>
<path d="M292 2928 c-28 -14 -39 -53 -21 -74 7 -9 37 -28 66 -41 57 -27 66
-45 32 -64 -28 -15 -94 4 -112 31 -16 27 -27 25 -27 -5 0 -18 10 -31 33 -45
67 -41 142 -13 135 52 -2 26 -11 36 -48 55 -25 13 -52 31 -60 39 -13 13 -13
16 0 24 22 14 64 12 86 -5 26 -20 34 -19 34 5 0 35 -70 51 -118 28z"/>
<path d="M760 2895 c0 -28 12 -32 30 -10 14 16 6 35 -16 35 -8 0 -14 -10 -14
-25z"/>
<path d="M1740 2861 c0 -11 5 -40 12 -64 10 -40 9 -46 -10 -67 -12 -13 -24
-32 -28 -42 -7 -24 -24 -23 -24 2 0 27 -58 90 -97 106 -81 34 -186 2 -227 -69
-33 -58 -39 -95 -23 -142 13 -36 12 -44 -5 -77 -11 -21 -17 -42 -13 -48 3 -5
42 -10 86 -10 51 0 79 -4 79 -11 0 -28 -85 -188 -132 -250 -54 -71 -75 -86
-64 -46 6 23 12 79 21 210 l5 77 -40 0 c-53 0 -60 -16 -60 -143 0 -63 -6 -123
-15 -153 -14 -47 -14 -50 9 -72 l23 -23 59 45 c114 87 244 267 244 340 0 25 2
26 65 26 114 0 152 29 222 165 37 74 38 76 21 105 -15 26 -15 34 -3 82 10 35
11 56 4 63 -14 14 -27 -10 -35 -62 -3 -24 -10 -43 -14 -43 -4 0 -14 26 -21 57
-14 56 -39 85 -39 44z m-146 -104 c43 -24 76 -76 76 -119 0 -20 -8 -31 -30
-43 -44 -23 -72 -20 -70 8 6 70 -18 107 -70 107 -36 0 -72 -33 -68 -62 4 -29
26 -34 30 -7 2 12 11 27 21 33 28 18 52 -4 55 -53 l3 -41 -63 0 c-35 0 -70 -4
-78 -10 -20 -13 -30 6 -30 61 0 115 122 185 224 126z m220 -43 c9 -8 16 -18
16 -21 0 -3 -21 -43 -46 -90 -66 -120 -71 -123 -266 -123 -89 0 -158 4 -158 9
0 5 14 21 31 35 28 24 37 26 132 26 122 0 147 12 197 91 58 94 67 100 94 73z"/>
<path d="M457 2849 c-20 -30 -43 -116 -34 -125 4 -4 25 13 47 37 l40 44 -3
-35 c-2 -31 1 -35 23 -38 18 -2 21 0 11 6 -11 8 -11 16 -1 46 6 19 16 38 21
42 11 6 2 24 -12 24 -5 0 -29 -18 -54 -41 l-44 -41 22 40 c17 31 19 44 10 53
-8 8 -15 5 -26 -12z"/>
<path d="M624 2852 c-17 -10 -54 -75 -54 -92 0 -26 21 -40 42 -29 10 5 18 15
18 21 0 7 -5 6 -15 -2 -30 -25 -16 30 15 62 35 34 30 64 -6 40z"/>
<path d="M724 2815 c-15 -36 -18 -77 -7 -88 4 -5 52 94 53 109 0 1 -7 5 -16 8
-11 4 -19 -4 -30 -29z"/>
<path d="M651 2805 c-16 -27 -18 -41 -11 -60 14 -36 26 -31 33 13 3 20 9 47
13 60 10 34 -11 26 -35 -13z"/>
<path d="M1185 2678 c-85 -144 -184 -418 -193 -531 -4 -64 -3 -70 23 -98 31
-32 51 -38 41 -13 -10 26 12 139 50 255 42 129 107 264 169 348 l45 61 -40 20
c-21 11 -44 20 -49 20 -6 0 -26 -28 -46 -62z"/>
<path d="M306 2655 c-77 -27 -126 -86 -126 -151 0 -63 34 -93 194 -174 82 -41
154 -83 160 -92 16 -26 -4 -69 -43 -95 -90 -61 -304 3 -351 104 -8 18 -18 33
-21 33 -9 0 -39 -69 -39 -92 0 -71 171 -168 295 -168 93 0 166 52 191 136 33
113 0 161 -166 244 -120 60 -180 102 -180 125 0 44 110 75 202 56 48 -10 71
-21 131 -63 26 -19 49 15 45 67 l-3 39 -70 23 c-80 25 -162 28 -219 8z m-47
-556 c10 0 11 -3 4 -6 -16 -6 -110 45 -117 63 -3 8 18 -2 45 -21 28 -19 59
-35 68 -36z"/>
<path d="M795 2444 c-48 -25 -104 -85 -133 -144 -49 -101 -32 -202 41 -238 63
-31 201 76 232 181 25 85 16 157 -21 157 -8 0 -27 14 -41 30 -28 34 -37 36
-78 14z m93 -136 c-6 -79 -24 -126 -41 -109 -9 9 -9 16 2 33 11 17 10 23 -3
36 -12 13 -18 13 -30 2 -12 -9 -19 -10 -29 -1 -19 15 -52 -20 -35 -37 8 -8 8
-15 -2 -27 -11 -13 -11 -19 3 -32 13 -13 19 -14 31 -4 12 10 19 10 36 -2 20
-14 20 -15 -15 -41 -19 -15 -48 -28 -63 -29 -24 -2 -27 1 -30 36 -5 54 22 127
65 177 43 50 94 83 106 71 5 -5 7 -38 5 -73z m-100 -60 c8 -8 15 -8 27 2 20
17 32 5 15 -15 -10 -12 -10 -18 0 -30 17 -20 5 -32 -15 -15 -12 10 -18 10 -30
0 -20 -17 -32 -5 -15 15 10 12 10 19 2 27 -14 14 -16 28 -4 28 4 0 13 -5 20
-12z"/>
<path d="M1706 2445 c-87 -31 -176 -162 -176 -259 0 -69 27 -111 79 -127 36
-11 43 -10 83 14 50 29 115 94 105 104 -4 3 -20 -5 -35 -19 -35 -34 -93 -68
-113 -68 -21 0 -35 17 -44 52 -6 25 -3 29 53 57 103 52 141 96 157 183 7 34 5
39 -26 57 -40 24 -33 24 -83 6z m58 -77 c-17 -57 -52 -100 -114 -141 -37 -25
-42 -21 -25 20 21 51 61 101 99 124 40 25 49 24 40 -3z"/>
</g>
</svg>
